<?xml version="1.0" standalone="no"?><!DOCTYPE svg PUBLIC "-//W3C//DTD SVG 1.1//EN" "http://www.w3.org/Graphics/SVG/1.1/DTD/svg11.dtd"><svg t="1601433180284" class="icon" viewBox="0 0 1228 1024" version="1.1" xmlns="http://www.w3.org/2000/svg" p-id="10553" xmlns:xlink="http://www.w3.org/1999/xlink" width="239.84375" height="200"><defs><style type="text/css"></style></defs><path d="M0 1024h1228.8V0H0v1024z m76.8-76.8v-870.4h1075.2v870.4h-1075.2z" p-id="10554"></path><path d="M610.5088 76.8l-502.528 870.4H76.8v-48.4352L551.3728 76.8h59.136z m118.2208 0l-502.5792 870.4H167.0144l502.5792-870.4h59.136z m118.2208 0l-502.5792 870.4H285.2864l502.528-870.4h59.136z m118.2208 0l-502.528 870.4H403.456l502.5792-870.4h59.0848z m118.272 0l-502.5792 870.4H521.728l502.528-870.4h59.136z m68.5568 0v86.016L699.136 947.2H640l502.5792-870.4h9.4208z m0 188.416v102.4L817.3568 947.2h-59.136l393.728-681.984z m0 204.8v102.4l-216.4224 374.784h-59.0848l275.456-477.184z m0 204.8v102.3488l-98.1504 169.984h-59.136l157.2864-272.384z m0 204.7488V947.2h-39.0656l39.0656-67.6352zM492.2368 76.7488L76.8 796.416v-102.4L433.152 76.8h59.0848z m-118.272 0L76.8 591.616v-102.4L314.88 76.8h59.136z m-118.1696 0L76.8 386.816v-102.4L196.608 76.8h59.1872z m-118.272 0L76.8 182.016v-102.4l1.536-2.7648h59.1872z" p-id="10555"></path></svg>